<svg width="32" height="32" viewBox="0 0 32 32" fill="none" xmlns="http://www.w3.org/2000/svg">
<path d="M16.597 13.2577L16.595 6.76131C16.6218 6.11707 16.8965 5.5081 17.3617 5.06162C17.827 4.61515 18.4467 4.36569 19.0915 4.36536C19.7363 4.36503 20.3563 4.61385 20.822 5.05985C21.2877 5.50585 21.563 6.11453 21.5905 6.75875L21.5894 16.7607" stroke="#000" stroke-width="3" stroke-linecap="round" stroke-linejoin="round"/>
<path d="M11.5989 15.265L11.6023 4.75918C11.6291 4.11493 11.9038 3.50597 12.3691 3.05949C12.8343 2.61301 13.454 2.36355 14.0988 2.36322C14.7436 2.36289 15.3636 2.61171 15.8293 3.05771C16.295 3.50371 16.5704 4.11239 16.5978 4.75661L16.5945 15.2624" stroke="#000" stroke-width="3" stroke-linecap="round" stroke-linejoin="round"/>
<path d="M21.593 18.7546L21.5945 14.2521C21.595 13.5882 21.8592 12.9517 22.329 12.4826C22.7987 12.0135 23.4356 11.7502 24.0995 11.7507C24.7634 11.7512 25.3999 12.0154 25.869 12.4852C26.3381 12.955 26.6014 13.5919 26.6009 14.2558L26.5972 19.2621C26.5969 21.9148 25.5428 24.4587 23.6669 26.3343C21.7909 28.2098 19.2468 29.2633 16.5941 29.263C13.9414 29.2627 11.3975 28.2086 9.522 26.3327C7.64648 24.4567 6.593 21.9126 6.59329 19.2599L6.59666 8.75406C6.59715 8.09018 6.86135 7.45367 7.33113 6.98458C7.80092 6.51548 8.43781 6.25223 9.1017 6.25271C9.76558 6.2532 10.4021 6.5174 10.8712 6.98719C11.3403 7.45697 11.6035 8.09386 11.603 8.75775L11.6034 14.2572" stroke="#000" stroke-width="3" stroke-linecap="round" stroke-linejoin="round"/>
</svg>
