<svg width="32" height="32" viewBox="0 0 32 32" xmlns="http://www.w3.org/2000/svg">
<rect width="32" height="32" fill="none"/>
<path opacity="0.2" d="M14.0446 9.06177L14.0411 7.06787C14.0457 6.55312 13.8696 6.05307 13.5435 5.65475V5.65475L13.5399 5.06091C13.5401 4.46384 13.7775 3.8913 14.1998 3.46925C14.6221 3.04719 15.1948 2.81019 15.7919 2.81038C16.389 2.81057 16.9615 3.04794 17.3836 3.47027C17.8056 3.89259 18.0426 4.46528 18.0424 5.06235L18.0387 7.64383C17.7454 7.28403 17.3481 7.02373 16.9011 6.89862C16.4541 6.77351 15.9793 6.78971 15.5419 6.945C15.1044 7.10029 14.7257 7.38708 14.4577 7.76604C14.1896 8.145 14.0454 8.59759 14.0446 9.06177" fill="#000" />
<path opacity="0.2" d="M22.5432 14.1417C22.25 13.7819 21.8526 13.5216 21.4056 13.3965C20.9586 13.2713 20.4839 13.2875 20.0464 13.4428C19.609 13.5981 19.2303 13.8849 18.9623 14.2639C18.6942 14.6428 18.5499 15.0954 18.5492 15.5596L18.5471 9.06321C18.5469 8.54552 18.3672 8.0439 18.0387 7.64384V7.64384L18.0397 7.06707C18.0398 6.77144 18.0981 6.47871 18.2113 6.20561C18.3245 5.93252 18.4905 5.68439 18.6996 5.47541C18.9087 5.26643 19.1569 5.10068 19.4301 4.98764C19.7033 4.87459 19.996 4.81645 20.2917 4.81655C20.5873 4.81664 20.88 4.87496 21.1531 4.98819C21.4262 5.10141 21.6743 5.26732 21.8833 5.47643C22.0923 5.68555 22.258 5.93378 22.3711 6.20695C22.4841 6.48012 22.5423 6.77288 22.5422 7.06852L22.5432 14.1417V14.1417Z" fill="#000" />
<path opacity="0.2" d="M22.5443 13.5649C22.5444 13.2693 22.6027 12.9766 22.716 12.7035C22.8292 12.4304 22.9951 12.1822 23.2042 11.9733C23.4133 11.7643 23.6616 11.5985 23.9347 11.4855C24.2079 11.3724 24.5007 11.3143 24.7963 11.3144C25.0919 11.3145 25.3847 11.3728 25.6578 11.486C25.9309 11.5993 26.179 11.7652 26.388 11.9743C26.5969 12.1834 26.7627 12.4316 26.8757 12.7048C26.9888 12.978 27.0469 13.2707 27.0468 13.5664L27.0496 17.8115C27.0465 19.8696 26.339 21.8647 25.0448 23.465C23.7507 25.0654 21.9477 26.1745 19.9358 26.6081C20.9126 25.766 21.6956 24.7224 22.231 23.5491C22.7664 22.3758 23.0415 21.1005 23.0375 19.8108L23.0409 15.5548C23.0393 15.0411 22.864 14.543 22.5433 14.1417V14.1417L22.5443 13.5649Z" fill="#000" />
<path d="M9.54172 10.5612C9.54182 10.2655 9.48368 9.97278 9.37063 9.69961C9.25758 9.42644 9.09184 9.17822 8.88286 8.9691C8.67387 8.75999 8.42575 8.59408 8.15265 8.48086C7.87956 8.36763 7.58683 8.30931 7.29119 8.30921C6.99555 8.30912 6.70279 8.36726 6.42962 8.4803C6.15645 8.59335 5.90822 8.7591 5.69911 8.96808C5.48999 9.17706 5.32409 9.42518 5.21086 9.69828C5.09764 9.97138 5.03932 10.2641 5.03922 10.5597L5.03834 19.8113C5.06117 22.1831 6.01942 24.4501 7.70474 26.1192C9.39007 27.7884 11.6662 28.7247 14.0382 28.7247C16.4101 28.7246 18.6862 27.7881 20.3714 26.1189C22.0567 24.4497 23.0148 22.1827 23.0375 19.8108L23.041 15.5548C23.0055 14.9829 22.7531 14.446 22.3354 14.0537C21.9176 13.6615 21.3659 13.4434 20.7929 13.444C20.2198 13.4446 19.6686 13.6639 19.2516 14.057C18.8347 14.4502 18.5835 14.9876 18.5493 15.5596" fill="none" stroke="#000" stroke-width="2" stroke-linecap="round" stroke-linejoin="round"/>
<path d="M14.0422 16.5659L14.0411 7.06785C14.0412 6.77221 13.983 6.47945 13.87 6.20628C13.7569 5.93311 13.5912 5.68488 13.3822 5.47577C13.1732 5.26665 12.9251 5.10075 12.652 4.98752C12.3789 4.8743 12.0862 4.81598 11.7906 4.81588C11.4949 4.81579 11.2022 4.87392 10.929 4.98697C10.6558 5.10002 10.4076 5.26577 10.1985 5.47475C9.98936 5.68373 9.82345 5.93185 9.71023 6.20495C9.597 6.47805 9.53868 6.77077 9.53859 7.06641L9.53971 16.5645" fill="none" stroke="#000" stroke-width="2" stroke-linecap="round" stroke-linejoin="round"/>
<path d="M18.5437 19.569L18.5471 9.06321C18.5473 8.46614 18.3103 7.89345 17.8882 7.47112C17.4661 7.0488 16.8936 6.81143 16.2965 6.81124C15.6995 6.81104 15.1268 7.04805 14.7045 7.4701C14.2821 7.89216 14.0448 8.4647 14.0446 9.06176" fill="none" stroke="#000" stroke-width="2" stroke-linecap="round" stroke-linejoin="round"/>
<path d="M18.0387 7.64383L18.0424 5.06235C18.0426 4.46528 17.8056 3.89259 17.3836 3.47027C16.9615 3.04794 16.389 2.81057 15.7919 2.81038C15.1948 2.81019 14.6221 3.04719 14.1998 3.46925C13.7775 3.8913 13.5401 4.46384 13.5399 5.06091L13.5435 5.65475" fill="none" stroke="#000" stroke-width="2" stroke-linecap="round" stroke-linejoin="round"/>
<path d="M19.9358 26.6081C21.9477 26.1745 23.7507 25.0654 25.0448 23.465C26.339 21.8647 27.0465 19.8696 27.0496 17.8115L27.0468 13.5664C27.0469 13.2707 26.9888 12.978 26.8757 12.7048C26.7627 12.4316 26.5969 12.1834 26.388 11.9743C26.179 11.7652 25.9309 11.5993 25.6578 11.486C25.3847 11.3728 25.0919 11.3145 24.7963 11.3144C24.5007 11.3143 24.2079 11.3724 23.9347 11.4855C23.6616 11.5985 23.4133 11.7643 23.2042 11.9733C22.9951 12.1822 22.8292 12.4304 22.716 12.7035C22.6027 12.9766 22.5444 13.2693 22.5443 13.5649" fill="none" stroke="#000" stroke-width="2" stroke-linecap="round" stroke-linejoin="round"/>
<path d="M22.5432 14.1417L22.5422 7.06852C22.5424 6.47145 22.3054 5.89876 21.8833 5.47643C21.4613 5.0541 20.8887 4.81674 20.2917 4.81655C19.6946 4.81635 19.1219 5.05336 18.6996 5.47541C18.2772 5.89747 18.0399 6.47001 18.0397 7.06707" fill="none" stroke="#000" stroke-width="2" stroke-linecap="round" stroke-linejoin="round"/>
</svg>
