<svg width="32" height="32" viewBox="0 0 32 32" fill="none" xmlns="http://www.w3.org/2000/svg">
<path d="M9.98227 10.5748C9.98237 10.2792 9.92423 9.98641 9.81118 9.71324C9.69813 9.44007 9.53239 9.19184 9.32341 8.98273C9.11443 8.77361 8.8663 8.60771 8.59321 8.49448C8.32011 8.38126 8.02738 8.32294 7.73174 8.32284C7.43611 8.32275 7.14334 8.38088 6.87017 8.49393C6.597 8.60698 6.34877 8.77273 6.13966 8.98171C5.93054 9.19069 5.76464 9.43881 5.65142 9.71191C5.53819 9.98501 5.47987 10.2777 5.47977 10.5734L5.47889 19.8249C5.50172 22.1968 6.45998 24.4637 8.1453 26.1329C9.83062 27.802 12.1067 28.7383 14.4787 28.7383C16.8507 28.7382 19.1268 27.8018 20.812 26.1325C22.4972 24.4633 23.4554 22.1963 23.4781 19.8244L23.4815 15.5685C23.4461 14.9965 23.1937 14.4596 22.7759 14.0674C22.3582 13.6751 21.8065 13.457 21.2334 13.4576C20.6604 13.4583 20.1091 13.6775 19.6922 14.0707C19.2753 14.4638 19.0241 15.0012 18.9898 15.5733" stroke="#000" stroke-linecap="round" stroke-linejoin="round"/>
<path d="M14.4828 16.5795L14.4816 7.08148C14.4817 6.78584 14.4236 6.49308 14.3105 6.21991C14.1975 5.94674 14.0318 5.69851 13.8228 5.48939C13.6138 5.28028 13.3657 5.11437 13.0926 5.00115C12.8195 4.88793 12.5267 4.8296 12.2311 4.82951C11.9355 4.82941 11.6427 4.88755 11.3695 5.0006C11.0964 5.11365 10.8481 5.27939 10.639 5.48837C10.4299 5.69735 10.264 5.94548 10.1508 6.21857C10.0376 6.49167 9.97923 6.7844 9.97914 7.08004L9.98026 16.5781" stroke="#000" stroke-linecap="round" stroke-linejoin="round"/>
<path d="M18.9843 19.5827L18.9876 9.07685C18.9878 8.47978 18.7508 7.90709 18.3288 7.48476C17.9067 7.06244 17.3342 6.82507 16.7371 6.82488C16.14 6.82469 15.5673 7.06169 15.145 7.48374C14.7227 7.9058 14.4853 8.47834 14.4851 9.07541" stroke="#000" stroke-linecap="round" stroke-linejoin="round"/>
<path d="M18.4792 7.65747L18.483 5.07599C18.4832 4.47892 18.2462 3.90623 17.8241 3.48391C17.4021 3.06158 16.8295 2.82421 16.2325 2.82402C15.6354 2.82383 15.0627 3.06083 14.6404 3.48289C14.218 3.90494 13.9807 4.47748 13.9805 5.07455L13.984 5.66839" stroke="#000" stroke-linecap="round" stroke-linejoin="round"/>
<path d="M20.3763 26.6217C22.3883 26.1881 24.1912 25.079 25.4854 23.4787C26.7796 21.8783 27.4871 19.8833 27.4902 17.8251L27.4874 13.58C27.4875 13.2843 27.4293 12.9916 27.3163 12.7184C27.2032 12.4452 27.0375 12.197 26.8285 11.9879C26.6195 11.7788 26.3714 11.6129 26.0983 11.4997C25.8252 11.3864 25.5325 11.3281 25.2368 11.328C24.9412 11.3279 24.6484 11.3861 24.3753 11.4991C24.1021 11.6122 23.8539 11.7779 23.6448 11.9869C23.4356 12.1959 23.2697 12.444 23.1565 12.7171C23.0433 12.9902 22.985 13.2829 22.9849 13.5785" stroke="#000" stroke-linecap="round" stroke-linejoin="round"/>
<path d="M22.9838 14.1553L22.9827 7.08216C22.9829 6.48509 22.7459 5.9124 22.3239 5.49007C21.9018 5.06775 21.3293 4.83038 20.7322 4.83019C20.1351 4.83 19.5625 5.067 19.1401 5.48905C18.7178 5.91111 18.4804 6.48365 18.4802 7.08072" stroke="#000" stroke-linecap="round" stroke-linejoin="round"/>
</svg>
