<svg width="32" height="32" viewBox="0 0 32 32" fill="none" xmlns="http://www.w3.org/2000/svg">
<path d="M9.54172 10.5612C9.54182 10.2655 9.48368 9.97277 9.37063 9.6996C9.25758 9.42643 9.09184 9.1782 8.88286 8.96909C8.67387 8.75997 8.42575 8.59406 8.15265 8.48084C7.87956 8.36762 7.58683 8.30929 7.29119 8.3092C6.99555 8.3091 6.70279 8.36724 6.42962 8.48029C6.15645 8.59334 5.90822 8.75908 5.69911 8.96806C5.48999 9.17705 5.32409 9.42517 5.21086 9.69827C5.09764 9.97136 5.03932 10.2641 5.03922 10.5597L5.03834 19.8113C5.06117 22.1831 6.01942 24.4501 7.70474 26.1192C9.39007 27.7884 11.6662 28.7247 14.0382 28.7246C16.4101 28.7246 18.6862 27.7881 20.3714 26.1189C22.0567 24.4497 23.0148 22.1827 23.0375 19.8108L23.041 15.5548C23.0055 14.9828 22.7531 14.446 22.3354 14.0537C21.9176 13.6615 21.3659 13.4434 20.7929 13.444C20.2198 13.4446 19.6686 13.6639 19.2516 14.057C18.8347 14.4502 18.5835 14.9876 18.5493 15.5596" stroke="#000" stroke-width="1.5" stroke-linecap="round" stroke-linejoin="round"/>
<path d="M14.0422 16.5659L14.0411 7.06784C14.0412 6.7722 13.983 6.47944 13.87 6.20627C13.7569 5.9331 13.5912 5.68487 13.3822 5.47575C13.1732 5.26664 12.9251 5.10073 12.652 4.98751C12.3789 4.87429 12.0862 4.81596 11.7906 4.81587C11.4949 4.81577 11.2022 4.87391 10.929 4.98696C10.6558 5.1 10.4076 5.26575 10.1985 5.47473C9.98936 5.68371 9.82345 5.93184 9.71023 6.20493C9.597 6.47803 9.53868 6.77076 9.53859 7.06639L9.53971 16.5645" stroke="#000" stroke-width="1.5" stroke-linecap="round" stroke-linejoin="round"/>
<path d="M18.5437 19.569L18.5471 9.06321C18.5473 8.46614 18.3103 7.89345 17.8882 7.47112C17.4661 7.0488 16.8936 6.81143 16.2965 6.81124C15.6995 6.81104 15.1268 7.04805 14.7045 7.4701C14.2821 7.89216 14.0448 8.4647 14.0446 9.06176" stroke="#000" stroke-width="1.5" stroke-linecap="round" stroke-linejoin="round"/>
<path d="M18.0387 7.64383L18.0424 5.06235C18.0426 4.46528 17.8056 3.89259 17.3836 3.47027C16.9615 3.04794 16.389 2.81057 15.7919 2.81038C15.1948 2.81019 14.6221 3.04719 14.1998 3.46925C13.7775 3.8913 13.5401 4.46384 13.5399 5.06091L13.5435 5.65475" stroke="#000" stroke-width="1.5" stroke-linecap="round" stroke-linejoin="round"/>
<path d="M19.9358 26.6081C21.9477 26.1745 23.7507 25.0653 25.0448 23.465C26.339 21.8647 27.0465 19.8696 27.0496 17.8115L27.0468 13.5663C27.0469 13.2707 26.9888 12.9779 26.8757 12.7048C26.7627 12.4316 26.5969 12.1834 26.388 11.9743C26.179 11.7651 25.9309 11.5992 25.6578 11.486C25.3847 11.3728 25.0919 11.3145 24.7963 11.3144C24.5007 11.3143 24.2079 11.3724 23.9347 11.4855C23.6616 11.5985 23.4133 11.7643 23.2042 11.9732C22.9951 12.1822 22.8292 12.4303 22.716 12.7034C22.6027 12.9765 22.5444 13.2693 22.5443 13.5649" stroke="#000" stroke-width="1.5" stroke-linecap="round" stroke-linejoin="round"/>
<path d="M22.5432 14.1417L22.5422 7.06852C22.5424 6.47145 22.3054 5.89876 21.8833 5.47643C21.4613 5.0541 20.8887 4.81674 20.2917 4.81655C19.6946 4.81635 19.1219 5.05336 18.6996 5.47541C18.2772 5.89747 18.0399 6.47001 18.0397 7.06707" stroke="#000" stroke-width="1.5" stroke-linecap="round" stroke-linejoin="round"/>
</svg>
