<svg width="32" height="32" viewBox="0 0 32 32" xmlns="http://www.w3.org/2000/svg">
<path d="M28.6526 16.9733L28.6498 12.7282C28.6517 12.3671 28.5822 12.0093 28.4452 11.6753C28.3083 11.3412 28.1066 11.0376 27.8518 10.7818C27.597 10.526 27.2941 10.3232 26.9606 10.1849C26.6271 10.0467 26.2695 9.97579 25.9085 9.97631C25.2677 9.97205 24.6464 10.1969 24.1568 10.6104L24.1453 6.23032C24.1471 5.8693 24.0776 5.51147 23.9406 5.17743C23.8037 4.84339 23.602 4.53974 23.3472 4.28397C23.0924 4.02819 22.7895 3.82535 22.456 3.68711C22.1225 3.54886 21.7649 3.47796 21.4039 3.47847C20.7631 3.47422 20.1418 3.6991 19.6522 4.11256C19.6208 3.40378 19.3179 2.73426 18.8063 2.24272C18.2947 1.75119 17.6136 1.47533 16.9041 1.47231C16.5428 1.473 16.1853 1.54521 15.852 1.68476C15.5188 1.82431 15.2164 2.02845 14.9624 2.2854C14.6722 2.56893 14.4519 2.91618 14.3191 3.29963C13.8776 3.08788 13.3947 2.97665 12.905 2.97394C12.0418 2.97635 11.2146 3.3208 10.6048 3.93185C9.99503 4.5429 9.65227 5.37073 9.65163 6.234L9.65564 6.72707C9.25933 6.55572 8.83104 6.47082 8.39933 6.47805C7.538 6.47881 6.7122 6.82144 6.10334 7.43069C5.49449 8.03994 5.15238 8.86596 5.15218 9.72729L5.15129 18.9788C5.14986 20.9579 5.73568 22.8928 6.83458 24.5387C7.93348 26.1847 9.49604 27.4675 11.3244 28.2249C13.1528 28.9822 15.1648 29.18 17.1057 28.7932C19.0466 28.4064 20.8291 27.4524 22.2275 26.052L22.3412 25.9301C24.1842 25.2638 25.7781 24.0473 26.907 22.4453C28.0358 20.8433 28.6452 18.9331 28.6526 16.9733ZM20.8058 24.6394C20.0661 25.3845 19.1855 25.975 18.2153 26.3763C17.2451 26.7777 16.2048 26.9819 15.1548 26.9772C13.0341 26.9769 11.0002 26.1345 9.50029 24.6352C8.00038 23.1358 7.15717 21.1023 7.15601 18.9815L7.1569 9.73001C7.15595 9.48271 7.22839 9.24068 7.36505 9.03455C7.5017 8.82843 7.69643 8.66747 7.92458 8.57205C8.15274 8.47663 8.40408 8.45103 8.64679 8.49849C8.8895 8.54596 9.11268 8.66435 9.28808 8.83869C9.52076 9.07681 9.65215 9.39581 9.65467 9.72873L9.65275 15.7321C9.65519 15.9065 9.70211 16.0774 9.78907 16.2287C9.87603 16.3799 10.0002 16.5065 10.1497 16.5963C10.3018 16.6834 10.4741 16.729 10.6493 16.7285C10.8245 16.7281 10.9966 16.6816 11.1482 16.5937C11.2998 16.5058 11.4256 16.3796 11.5131 16.2278C11.6006 16.0759 11.6466 15.9038 11.6466 15.7285L11.6455 6.23048C11.6462 5.89782 11.779 5.57904 12.0147 5.34428C12.2504 5.10952 12.5696 4.978 12.9023 4.97866C13.235 4.97932 13.5537 5.1121 13.7885 5.34779C14.0233 5.58349 14.1548 5.90279 14.1541 6.23545L14.1553 15.7335C14.1447 15.871 14.1628 16.0092 14.2082 16.1394C14.2537 16.2696 14.3255 16.389 14.4194 16.4901C14.5132 16.5911 14.6269 16.6717 14.7533 16.7267C14.8797 16.7818 15.0162 16.81 15.1541 16.8098C15.292 16.8096 15.4284 16.7808 15.5546 16.7253C15.6809 16.6698 15.7943 16.5889 15.8877 16.4875C15.9812 16.386 16.0526 16.2664 16.0976 16.136C16.1426 16.0057 16.1602 15.8674 16.1491 15.73L16.1515 8.22582C16.1544 7.89382 16.2878 7.5763 16.5231 7.342C16.7583 7.1077 17.0763 6.97549 17.4083 6.974C17.7384 6.97638 18.0541 7.10919 18.2866 7.34347C18.5191 7.57775 18.6495 7.89448 18.6493 8.22453L18.646 18.7304C18.6485 18.9069 18.6965 19.0798 18.7855 19.2323C18.8744 19.3849 19.0013 19.5118 19.1537 19.6009C19.3078 19.6848 19.4801 19.7298 19.6555 19.7318C19.9197 19.7305 20.1726 19.6248 20.359 19.4377C20.5455 19.2505 20.6503 18.9973 20.6507 18.7331L20.6561 14.7237C20.6558 14.396 20.7854 14.0815 21.0166 13.8493C21.1316 13.73 21.2701 13.6359 21.4233 13.5728C21.5765 13.5097 21.741 13.479 21.9067 13.4827C22.0694 13.4789 22.2312 13.509 22.3817 13.571C22.5323 13.6331 22.6682 13.7258 22.7811 13.8432C22.8989 13.9573 22.9926 14.0939 23.0567 14.2449C23.1207 14.396 23.1538 14.5583 23.1539 14.7224L23.1505 18.9783C23.1543 20.0302 22.9489 21.0724 22.5464 22.0443C22.1439 23.0161 21.5522 23.8983 20.8058 24.6394Z" fill="#000"/>
</svg>
